# xmcd
#
# Track frame offsets:
#	150
#	22275
#	47325
#	69807
#	91502
#	116572
#
# Disc length: 1904 seconds
#
# Revision: 1
# Processed by: cddbd v1.5.1PL0 Copyright (c) Steve Scherf et al.
# Submitted via: CDex 1.50Beta5
#
DISCID=3e076e06
DTITLE=江口洋介 - EASY GOING
DYEAR=1900
DGENRE=Pop
TTITLE0=Ready,Go!
TTITLE1=愛は愛で(Album Version)
TTITLE2=月
TTITLE3=誰でもない君へ
TTITLE4=東の風に
TTITLE5=明けていく街
EXTD=
EXTT0=
EXTT1=
EXTT2=
EXTT3=
EXTT4=
EXTT5=
PLAYORDER=
